<svg width="46" height="23" viewBox="0 0 46 23" fill="none" xmlns="http://www.w3.org/2000/svg">
<path d="M7.94886 9.84091V8.16477L12.8864 0.363636H14.2841V2.75H13.4318L10.108 8.01705V8.10795H17V9.84091H7.94886ZM13.5 12V9.32955L13.5227 8.57955V0.363636H15.5114V12H13.5ZM23.1165 12.2216C22.1809 12.2216 21.3778 11.9848 20.7074 11.5114C20.0407 11.0341 19.5275 10.3466 19.1676 9.44886C18.8116 8.54735 18.6335 7.46212 18.6335 6.19318C18.6373 4.92424 18.8172 3.8447 19.1733 2.95455C19.5331 2.06061 20.0464 1.37879 20.7131 0.909091C21.3835 0.439394 22.1847 0.204545 23.1165 0.204545C24.0483 0.204545 24.8494 0.439394 25.5199 0.909091C26.1903 1.37879 26.7036 2.06061 27.0597 2.95455C27.4195 3.84848 27.5994 4.92803 27.5994 6.19318C27.5994 7.46591 27.4195 8.55303 27.0597 9.45455C26.7036 10.3523 26.1903 11.0379 25.5199 11.5114C24.8532 11.9848 24.0521 12.2216 23.1165 12.2216ZM23.1165 10.4432C23.8438 10.4432 24.4176 10.0852 24.8381 9.36932C25.2623 8.64962 25.4744 7.59091 25.4744 6.19318C25.4744 5.26894 25.3778 4.49242 25.1847 3.86364C24.9915 3.23485 24.7188 2.76136 24.3665 2.44318C24.0142 2.12121 23.5975 1.96023 23.1165 1.96023C22.393 1.96023 21.821 2.32008 21.4006 3.03977C20.9801 3.75568 20.768 4.80682 20.7642 6.19318C20.7604 7.12121 20.8532 7.90151 21.0426 8.53409C21.2358 9.16667 21.5085 9.64394 21.8608 9.96591C22.2131 10.2841 22.6316 10.4432 23.1165 10.4432ZM33.6634 12.1591C32.8452 12.1591 32.1179 12.0189 31.4815 11.7386C30.849 11.4583 30.349 11.0682 29.9815 10.5682C29.6141 10.0682 29.419 9.49053 29.3963 8.83523H31.5327C31.5516 9.14962 31.6558 9.42424 31.8452 9.65909C32.0346 9.89015 32.2865 10.0701 32.6009 10.1989C32.9152 10.3277 33.2675 10.392 33.6577 10.392C34.0743 10.392 34.4437 10.3201 34.7656 10.1761C35.0876 10.0284 35.3395 9.82386 35.5213 9.5625C35.7031 9.30114 35.7921 9 35.7884 8.65909C35.7921 8.30682 35.7012 7.99621 35.5156 7.72727C35.33 7.45833 35.0611 7.24811 34.7088 7.09659C34.3603 6.94508 33.9399 6.86932 33.4474 6.86932H32.419V5.24432H33.4474C33.8527 5.24432 34.2069 5.17424 34.5099 5.03409C34.8168 4.89394 35.0573 4.69697 35.2315 4.44318C35.4058 4.18561 35.491 3.88826 35.4872 3.55114C35.491 3.22159 35.4171 2.93561 35.2656 2.69318C35.1179 2.44697 34.9077 2.25568 34.6349 2.11932C34.366 1.98295 34.0497 1.91477 33.6861 1.91477C33.33 1.91477 33.0005 1.97917 32.6974 2.10795C32.3944 2.23674 32.1501 2.42045 31.9645 2.65909C31.7789 2.89394 31.6804 3.17424 31.669 3.5H29.6406C29.6558 2.84848 29.8433 2.27652 30.2031 1.78409C30.5668 1.28788 31.0516 0.901515 31.6577 0.625C32.2637 0.344697 32.9437 0.204545 33.6974 0.204545C34.474 0.204545 35.1482 0.350378 35.7202 0.642045C36.2959 0.929924 36.741 1.31818 37.0554 1.80682C37.3698 2.29545 37.527 2.83523 37.527 3.42614C37.5308 4.08144 37.3376 4.63068 36.9474 5.07386C36.5611 5.51705 36.0535 5.80682 35.4247 5.94318V6.03409C36.2429 6.14773 36.8698 6.45076 37.3054 6.94318C37.7448 7.43182 37.9626 8.03977 37.9588 8.76705C37.9588 9.41856 37.7732 10.0019 37.402 10.517C37.0346 11.0284 36.527 11.4299 35.8793 11.7216C35.2353 12.0133 34.4967 12.1591 33.6634 12.1591ZM0.612926 22V16.1818H4.3402V17.0653H1.6669V18.6449H4.08452V19.5284H1.6669V22H0.612926ZM10.4993 19.0909C10.4993 19.7178 10.3819 20.2547 10.147 20.7017C9.91406 21.1468 9.59588 21.4877 9.19247 21.7244C8.79096 21.9612 8.33546 22.0795 7.82599 22.0795C7.31652 22.0795 6.86009 21.9612 6.45668 21.7244C6.05516 21.4858 5.73698 21.1439 5.50213 20.6989C5.26918 20.2519 5.1527 19.7159 5.1527 19.0909C5.1527 18.464 5.26918 17.928 5.50213 17.483C5.73698 17.036 6.05516 16.6941 6.45668 16.4574C6.86009 16.2206 7.31652 16.1023 7.82599 16.1023C8.33546 16.1023 8.79096 16.2206 9.19247 16.4574C9.59588 16.6941 9.91406 17.036 10.147 17.483C10.3819 17.928 10.4993 18.464 10.4993 19.0909ZM9.43963 19.0909C9.43963 18.6496 9.3705 18.2775 9.23224 17.9744C9.09588 17.6695 8.90649 17.4394 8.66406 17.2841C8.42164 17.1269 8.14228 17.0483 7.82599 17.0483C7.50971 17.0483 7.23035 17.1269 6.98793 17.2841C6.7455 17.4394 6.55516 17.6695 6.4169 17.9744C6.28054 18.2775 6.21236 18.6496 6.21236 19.0909C6.21236 19.5322 6.28054 19.9053 6.4169 20.2102C6.55516 20.5133 6.7455 20.7434 6.98793 20.9006C7.23035 21.0559 7.50971 21.1335 7.82599 21.1335C8.14228 21.1335 8.42164 21.0559 8.66406 20.9006C8.90649 20.7434 9.09588 20.5133 9.23224 20.2102C9.3705 19.9053 9.43963 19.5322 9.43963 19.0909ZM11.4957 22V16.1818H13.6776C14.1245 16.1818 14.4995 16.2595 14.8026 16.4148C15.1075 16.5701 15.3376 16.7879 15.4929 17.0682C15.6501 17.3466 15.7287 17.6714 15.7287 18.0426C15.7287 18.4157 15.6491 18.7396 15.4901 19.0142C15.3329 19.2869 15.1009 19.4981 14.794 19.6477C14.4872 19.7955 14.1103 19.8693 13.6634 19.8693H12.1094V18.9943H13.5213C13.7827 18.9943 13.9967 18.9583 14.1634 18.8864C14.33 18.8125 14.4531 18.7055 14.5327 18.5653C14.6141 18.4233 14.6548 18.2491 14.6548 18.0426C14.6548 17.8362 14.6141 17.66 14.5327 17.5142C14.4512 17.3665 14.3272 17.2547 14.1605 17.179C13.9938 17.1013 13.7789 17.0625 13.5156 17.0625H12.5497V22H11.4957ZM14.5014 19.3636L15.9418 22H14.7656L13.3509 19.3636H14.5014ZM16.6989 22V16.1818H18.9261C19.3466 16.1818 19.696 16.2481 19.9744 16.3807C20.2547 16.5114 20.464 16.6903 20.6023 16.9176C20.7424 17.1449 20.8125 17.4025 20.8125 17.6903C20.8125 17.9271 20.767 18.1297 20.6761 18.2983C20.5852 18.465 20.4631 18.6004 20.3097 18.7045C20.1562 18.8087 19.9848 18.8835 19.7955 18.929V18.9858C20.0019 18.9972 20.1998 19.0606 20.3892 19.1761C20.5805 19.2898 20.7367 19.4508 20.858 19.6591C20.9792 19.8674 21.0398 20.1193 21.0398 20.4148C21.0398 20.7159 20.9669 20.9867 20.821 21.2273C20.6752 21.4659 20.4555 21.6544 20.1619 21.7926C19.8684 21.9309 19.4991 22 19.054 22H16.6989ZM17.7528 21.1193H18.8864C19.2689 21.1193 19.5445 21.0464 19.7131 20.9006C19.8835 20.7528 19.9688 20.5634 19.9688 20.3324C19.9688 20.16 19.9261 20.0047 19.8409 19.8665C19.7557 19.7263 19.6345 19.6165 19.4773 19.5369C19.3201 19.4555 19.1326 19.4148 18.9148 19.4148H17.7528V21.1193ZM17.7528 18.6562H18.7955C18.9773 18.6562 19.1411 18.6231 19.2869 18.5568C19.4328 18.4886 19.5473 18.393 19.6307 18.2699C19.7159 18.1449 19.7585 17.9972 19.7585 17.8267C19.7585 17.6013 19.679 17.4157 19.5199 17.2699C19.3627 17.1241 19.1288 17.0511 18.8182 17.0511H17.7528V18.6562ZM23.0107 16.1818V22H21.9567V16.1818H23.0107ZM26.1236 22H24.152V16.1818H26.1634C26.741 16.1818 27.2372 16.2983 27.652 16.5312C28.0687 16.7623 28.3887 17.0947 28.6122 17.5284C28.8357 17.9621 28.9474 18.4811 28.9474 19.0852C28.9474 19.6913 28.8348 20.2121 28.6094 20.6477C28.3859 21.0833 28.063 21.4176 27.6406 21.6506C27.2202 21.8835 26.7145 22 26.1236 22ZM25.206 21.0881H26.0724C26.4777 21.0881 26.8158 21.0142 27.0866 20.8665C27.3575 20.7169 27.5611 20.4943 27.6974 20.1989C27.8338 19.9015 27.902 19.5303 27.902 19.0852C27.902 18.6402 27.8338 18.2708 27.6974 17.9773C27.5611 17.6818 27.3594 17.4612 27.0923 17.3153C26.8272 17.1676 26.4976 17.0938 26.1037 17.0938H25.206V21.0881ZM31.9205 22H29.9489V16.1818H31.9602C32.5379 16.1818 33.0341 16.2983 33.4489 16.5312C33.8655 16.7623 34.1856 17.0947 34.4091 17.5284C34.6326 17.9621 34.7443 18.4811 34.7443 19.0852C34.7443 19.6913 34.6316 20.2121 34.4062 20.6477C34.1828 21.0833 33.8598 21.4176 33.4375 21.6506C33.017 21.8835 32.5114 22 31.9205 22ZM31.0028 21.0881H31.8693C32.2746 21.0881 32.6127 21.0142 32.8835 20.8665C33.1544 20.7169 33.358 20.4943 33.4943 20.1989C33.6307 19.9015 33.6989 19.5303 33.6989 19.0852C33.6989 18.6402 33.6307 18.2708 33.4943 17.9773C33.358 17.6818 33.1563 17.4612 32.8892 17.3153C32.6241 17.1676 32.2945 17.0938 31.9006 17.0938H31.0028V21.0881ZM35.7457 22V16.1818H39.5298V17.0653H36.7997V18.6449H39.3338V19.5284H36.7997V21.1165H39.5526V22H35.7457ZM45.3864 16.1818V22H44.4489L41.7074 18.0369H41.6591V22H40.6051V16.1818H41.5483L44.2869 20.1477H44.3381V16.1818H45.3864Z" fill="#A8C0DB"/>
</svg>
