<svg width="157" height="76" viewBox="0 0 157 76" fill="none" xmlns="http://www.w3.org/2000/svg">
<path d="M24.1616 34.3594V26.8203L40.5483 0.999999H47.2476V11.2344H43.3608L33.771 26.4297V26.7422H57.5015V34.3594H24.1616ZM43.478 41V32.0547L43.6733 28.7539V0.999999H52.7163V41H43.478ZM79.1128 41.9766C75.6232 41.9766 72.6154 41.1497 70.0894 39.4961C67.5633 37.8294 65.6167 35.4401 64.2495 32.3281C62.8823 29.2031 62.2052 25.4466 62.2183 21.0586C62.2313 16.6706 62.9149 12.9466 64.269 9.88672C65.6362 6.8138 67.5763 4.47656 70.0894 2.875C72.6154 1.26042 75.6232 0.453124 79.1128 0.453124C82.6024 0.453124 85.6102 1.26042 88.1362 2.875C90.6753 4.47656 92.6284 6.8138 93.9956 9.88672C95.3628 12.9596 96.0399 16.6836 96.0269 21.0586C96.0269 25.4596 95.3433 29.2227 93.9761 32.3477C92.6089 35.4727 90.6623 37.862 88.1362 39.5156C85.6232 41.1562 82.6154 41.9766 79.1128 41.9766ZM79.1128 34.0664C81.1961 34.0664 82.8823 33.0052 84.1714 30.8828C85.4604 28.7474 86.0985 25.4727 86.0855 21.0586C86.0855 18.168 85.7925 15.7852 85.2065 13.9102C84.6206 12.0221 83.8068 10.6159 82.7651 9.6914C81.7235 8.76693 80.506 8.30469 79.1128 8.30469C77.0425 8.30469 75.3693 9.35286 74.0933 11.4492C72.8172 13.5326 72.1727 16.7357 72.1597 21.0586C72.1466 23.9883 72.4266 26.4167 72.9995 28.3437C73.5854 30.2708 74.4058 31.7096 75.4604 32.6602C76.5151 33.5977 77.7326 34.0664 79.1128 34.0664ZM116.779 41.5469C113.732 41.5469 111.03 41.026 108.673 39.9844C106.33 38.9297 104.481 37.4779 103.126 35.6289C101.772 33.7799 101.082 31.651 101.056 29.2422H110.783C110.822 30.1146 111.102 30.8893 111.623 31.5664C112.143 32.2305 112.853 32.7513 113.751 33.1289C114.65 33.5065 115.672 33.6953 116.818 33.6953C117.964 33.6953 118.973 33.4935 119.845 33.0898C120.731 32.6732 121.421 32.1068 121.916 31.3906C122.41 30.6615 122.651 29.8281 122.638 28.8906C122.651 27.9531 122.384 27.1198 121.837 26.3906C121.291 25.6615 120.516 25.0951 119.513 24.6914C118.524 24.2878 117.352 24.0859 115.998 24.0859H112.111V17.2109H115.998C117.182 17.2109 118.224 17.0156 119.123 16.625C120.034 16.2344 120.744 15.6875 121.251 14.9844C121.759 14.2682 122.007 13.4479 121.994 12.5234C122.007 11.625 121.792 10.8372 121.349 10.1602C120.919 9.47005 120.314 8.9362 119.533 8.55859C118.764 8.18099 117.873 7.99219 116.857 7.99219C115.789 7.99219 114.819 8.18099 113.947 8.55859C113.087 8.9362 112.404 9.47005 111.896 10.1602C111.388 10.8503 111.121 11.651 111.095 12.5625H101.857C101.883 10.1797 102.547 8.08333 103.849 6.27344C105.151 4.45052 106.922 3.02474 109.162 1.99609C111.414 0.967447 113.979 0.453124 116.857 0.453124C119.722 0.453124 122.241 0.954426 124.416 1.95703C126.59 2.95963 128.283 4.32682 129.494 6.05859C130.705 7.77734 131.31 9.72396 131.31 11.8984C131.323 14.151 130.587 16.0065 129.103 17.4648C127.632 18.9232 125.737 19.8216 123.419 20.1602V20.4727C126.518 20.8372 128.856 21.8398 130.431 23.4805C132.02 25.1211 132.807 27.1719 132.794 29.6328C132.794 31.9505 132.111 34.0078 130.744 35.8047C129.389 37.5885 127.501 38.9948 125.08 40.0234C122.671 41.0391 119.904 41.5469 116.779 41.5469ZM0.145241 75V54.6364H13.1907V57.7287H3.83416V63.2571H12.2958V66.3494H3.83416V75H0.145241ZM34.7475 64.8182C34.7475 67.0123 34.3365 68.8916 33.5146 70.456C32.6992 72.0137 31.5856 73.2069 30.1737 74.0355C28.7683 74.8641 27.1741 75.2784 25.391 75.2784C23.6078 75.2784 22.0103 74.8641 20.5984 74.0355C19.1931 73.2003 18.0794 72.0038 17.2575 70.446C16.4421 68.8816 16.0344 67.0057 16.0344 64.8182C16.0344 62.6241 16.4421 60.7481 17.2575 59.1903C18.0794 57.6259 19.1931 56.4295 20.5984 55.6009C22.0103 54.7723 23.6078 54.358 25.391 54.358C27.1741 54.358 28.7683 54.7723 30.1737 55.6009C31.5856 56.4295 32.6992 57.6259 33.5146 59.1903C34.3365 60.7481 34.7475 62.6241 34.7475 64.8182ZM31.0387 64.8182C31.0387 63.2737 30.7968 61.9711 30.3129 60.9105C29.8356 59.8433 29.1727 59.0379 28.3242 58.4943C27.4757 57.9441 26.498 57.669 25.391 57.669C24.284 57.669 23.3062 57.9441 22.4577 58.4943C21.6093 59.0379 20.9431 59.8433 20.4592 60.9105C19.9819 61.9711 19.7433 63.2737 19.7433 64.8182C19.7433 66.3627 19.9819 67.6686 20.4592 68.7358C20.9431 69.7964 21.6093 70.6018 22.4577 71.152C23.3062 71.6955 24.284 71.9673 25.391 71.9673C26.498 71.9673 27.4757 71.6955 28.3242 71.152C29.1727 70.6018 29.8356 69.7964 30.3129 68.7358C30.7968 67.6686 31.0387 66.3627 31.0387 64.8182ZM38.2351 75V54.6364H45.8714C47.4358 54.6364 48.7483 54.9081 49.8089 55.4517C50.8762 55.9953 51.6816 56.7576 52.2251 57.7386C52.7753 58.7131 53.0504 59.8499 53.0504 61.1491C53.0504 62.455 52.772 63.5885 52.2152 64.5497C51.665 65.5043 50.853 66.2434 49.7791 66.767C48.7053 67.2841 47.3861 67.5426 45.8217 67.5426H40.3828V64.4801H45.3246C46.2393 64.4801 46.9884 64.3542 47.5717 64.1023C48.1551 63.8437 48.5859 63.4692 48.8643 62.9787C49.1494 62.4815 49.2919 61.8717 49.2919 61.1491C49.2919 60.4266 49.1494 59.8101 48.8643 59.2997C48.5793 58.7827 48.1451 58.3916 47.5618 58.1264C46.9785 57.8546 46.2261 57.7188 45.3047 57.7188H41.924V75H38.2351ZM48.755 65.7727L53.7962 75H49.6797L44.728 65.7727H48.755ZM56.446 75V54.6364H64.2415C65.7131 54.6364 66.9361 54.8684 67.9105 55.3324C68.8916 55.7898 69.6241 56.4162 70.108 57.2116C70.5985 58.0071 70.8438 58.9086 70.8438 59.9162C70.8438 60.7448 70.6847 61.4541 70.3665 62.044C70.0483 62.6274 69.6207 63.1013 69.0838 63.4659C68.5469 63.8305 67.947 64.0923 67.2841 64.2514V64.4503C68.0066 64.4901 68.6993 64.7121 69.3622 65.1165C70.0317 65.5142 70.5786 66.0777 71.0028 66.8068C71.4271 67.536 71.6392 68.4176 71.6392 69.4517C71.6392 70.5057 71.384 71.4536 70.8736 72.2955C70.3632 73.1307 69.5942 73.7902 68.5668 74.2741C67.5393 74.758 66.2467 75 64.6889 75H56.446ZM60.1349 71.9176H64.1023C65.4413 71.9176 66.4058 71.6624 66.9957 71.152C67.5923 70.6349 67.8906 69.9721 67.8906 69.1634C67.8906 68.5601 67.7415 68.0166 67.4432 67.5327C67.1449 67.0421 66.7206 66.6577 66.1705 66.3793C65.6203 66.0942 64.964 65.9517 64.2017 65.9517H60.1349V71.9176ZM60.1349 63.2969H63.7841C64.4205 63.2969 64.9938 63.1809 65.5043 62.9489C66.0147 62.7102 66.4157 62.3755 66.7074 61.9446C67.0057 61.5071 67.1548 60.9901 67.1548 60.3935C67.1548 59.6046 66.8764 58.955 66.3196 58.4446C65.7694 57.9342 64.9508 57.679 63.8636 57.679H60.1349V63.2969ZM78.5373 54.6364V75H74.8484V54.6364H78.5373ZM89.4325 75H82.532V54.6364H89.5717C91.5935 54.6364 93.3303 55.044 94.782 55.8594C96.2403 56.6681 97.3606 57.8314 98.1428 59.3494C98.925 60.8674 99.3161 62.6837 99.3161 64.7983C99.3161 66.9195 98.9216 68.7424 98.1328 70.267C97.3506 71.7917 96.2204 72.9616 94.7422 73.777C93.2706 74.5923 91.5007 75 89.4325 75ZM86.2209 71.8082H89.2536C90.6721 71.8082 91.8554 71.5497 92.8033 71.0327C93.7512 70.509 94.4638 69.7301 94.9411 68.696C95.4183 67.6553 95.657 66.3561 95.657 64.7983C95.657 63.2405 95.4183 61.9479 94.9411 60.9205C94.4638 59.8864 93.7578 59.1141 92.8232 58.6037C91.8951 58.0866 90.7417 57.8281 89.3629 57.8281H86.2209V71.8082ZM109.722 75H102.821V54.6364H109.861C111.883 54.6364 113.619 55.044 115.071 55.8594C116.529 56.6681 117.65 57.8314 118.432 59.3494C119.214 60.8674 119.605 62.6837 119.605 64.7983C119.605 66.9195 119.211 68.7424 118.422 70.267C117.64 71.7917 116.509 72.9616 115.031 73.777C113.56 74.5923 111.79 75 109.722 75ZM106.51 71.8082H109.543C110.961 71.8082 112.144 71.5497 113.092 71.0327C114.04 70.509 114.753 69.7301 115.23 68.696C115.707 67.6553 115.946 66.3561 115.946 64.7983C115.946 63.2405 115.707 61.9479 115.23 60.9205C114.753 59.8864 114.047 59.1141 113.112 58.6037C112.184 58.0866 111.031 57.8281 109.652 57.8281H106.51V71.8082ZM123.11 75V54.6364H136.354V57.7287H126.799V63.2571H135.668V66.3494H126.799V71.9077H136.434V75H123.11ZM156.852 54.6364V75H153.571L143.976 61.1293H143.807V75H140.118V54.6364H143.419L153.004 68.517H153.183V54.6364H156.852Z" fill="#007BFF"/>
</svg>
